<mxfile host="app.diagrams.net" modified="2021-01-04T06:48:13.065Z" agent="5.0 (Macintosh; Intel Mac OS X 11_1_0) AppleWebKit/537.36 (KHTML, like Gecko) Chrome/87.0.4280.88 Safari/537.36" etag="EYnYb39ghu7fjavYfjEf" version="14.1.8" type="github">
  <diagram id="gbyR3BbDIpJ6xn25tHza" name="Page-1">
    <mxGraphModel dx="1135" dy="738" grid="1" gridSize="10" guides="1" tooltips="1" connect="1" arrows="1" fold="1" page="1" pageScale="1" pageWidth="827" pageHeight="1169" math="0" shadow="0">
      <root>
        <mxCell id="0" />
        <mxCell id="1" parent="0" />
        <mxCell id="zfAiL8usJquPXQVk5bwJ-2" value="DB (Aws)" style="rounded=0;whiteSpace=wrap;html=1;" parent="1" vertex="1">
          <mxGeometry x="90" y="660" width="630" height="40" as="geometry" />
        </mxCell>
        <mxCell id="zfAiL8usJquPXQVk5bwJ-3" value="Redis (Aws)" style="rounded=0;whiteSpace=wrap;html=1;" parent="1" vertex="1">
          <mxGeometry x="90" y="585" width="630" height="40" as="geometry" />
        </mxCell>
        <mxCell id="zfAiL8usJquPXQVk5bwJ-10" value="" style="endArrow=classic;startArrow=classic;html=1;entryX=0.5;entryY=0;entryDx=0;entryDy=0;exitX=0.5;exitY=1;exitDx=0;exitDy=0;" parent="1" source="zfAiL8usJquPXQVk5bwJ-3" target="zfAiL8usJquPXQVk5bwJ-2" edge="1">
          <mxGeometry width="50" height="50" relative="1" as="geometry">
            <mxPoint x="340" y="510" as="sourcePoint" />
            <mxPoint x="390" y="460" as="targetPoint" />
          </mxGeometry>
        </mxCell>
        <mxCell id="zfAiL8usJquPXQVk5bwJ-12" value="" style="rounded=0;whiteSpace=wrap;html=1;" parent="1" vertex="1">
          <mxGeometry x="572" y="470" width="150" height="90" as="geometry" />
        </mxCell>
        <mxCell id="zfAiL8usJquPXQVk5bwJ-13" value="paid orders" style="rounded=0;whiteSpace=wrap;html=1;" parent="1" vertex="1">
          <mxGeometry x="587" y="500" width="120" height="30" as="geometry" />
        </mxCell>
        <mxCell id="zfAiL8usJquPXQVk5bwJ-16" value="" style="rounded=0;whiteSpace=wrap;html=1;" parent="1" vertex="1">
          <mxGeometry x="90" y="470" width="460" height="90" as="geometry" />
        </mxCell>
        <mxCell id="qv1XhSE9-4ylHCxE3Da8-3" value="" style="endArrow=classic;html=1;exitX=0.5;exitY=1;exitDx=0;exitDy=0;" edge="1" parent="1" source="zfAiL8usJquPXQVk5bwJ-12">
          <mxGeometry width="50" height="50" relative="1" as="geometry">
            <mxPoint x="647" y="560" as="sourcePoint" />
            <mxPoint x="649" y="586" as="targetPoint" />
          </mxGeometry>
        </mxCell>
        <mxCell id="qv1XhSE9-4ylHCxE3Da8-4" value="points service" style="rounded=0;whiteSpace=wrap;html=1;" vertex="1" parent="1">
          <mxGeometry x="110" y="480" width="120" height="30" as="geometry" />
        </mxCell>
        <mxCell id="qv1XhSE9-4ylHCxE3Da8-5" value="location iot service" style="rounded=0;whiteSpace=wrap;html=1;" vertex="1" parent="1">
          <mxGeometry x="110" y="520" width="120" height="30" as="geometry" />
        </mxCell>
        <mxCell id="qv1XhSE9-4ylHCxE3Da8-6" value="order services" style="rounded=0;whiteSpace=wrap;html=1;" vertex="1" parent="1">
          <mxGeometry x="250" y="480" width="120" height="30" as="geometry" />
        </mxCell>
        <mxCell id="qv1XhSE9-4ylHCxE3Da8-7" value="user services" style="rounded=0;whiteSpace=wrap;html=1;" vertex="1" parent="1">
          <mxGeometry x="250" y="520" width="120" height="30" as="geometry" />
        </mxCell>
        <mxCell id="qv1XhSE9-4ylHCxE3Da8-8" value="bus-line services" style="rounded=0;whiteSpace=wrap;html=1;" vertex="1" parent="1">
          <mxGeometry x="390" y="480" width="120" height="30" as="geometry" />
        </mxCell>
        <mxCell id="qv1XhSE9-4ylHCxE3Da8-9" value="vehicle services" style="rounded=0;whiteSpace=wrap;html=1;" vertex="1" parent="1">
          <mxGeometry x="390" y="520" width="120" height="30" as="geometry" />
        </mxCell>
        <mxCell id="qv1XhSE9-4ylHCxE3Da8-13" value="" style="edgeStyle=orthogonalEdgeStyle;rounded=0;orthogonalLoop=1;jettySize=auto;html=1;" edge="1" parent="1" source="qv1XhSE9-4ylHCxE3Da8-10">
          <mxGeometry relative="1" as="geometry">
            <mxPoint x="647" y="470" as="targetPoint" />
          </mxGeometry>
        </mxCell>
        <mxCell id="qv1XhSE9-4ylHCxE3Da8-10" value="vehicle local server" style="rounded=0;whiteSpace=wrap;html=1;" vertex="1" parent="1">
          <mxGeometry x="574" y="400" width="148" height="40" as="geometry" />
        </mxCell>
        <mxCell id="qv1XhSE9-4ylHCxE3Da8-11" value="nginx" style="rounded=0;whiteSpace=wrap;html=1;" vertex="1" parent="1">
          <mxGeometry x="90" y="400" width="460" height="40" as="geometry" />
        </mxCell>
        <mxCell id="qv1XhSE9-4ylHCxE3Da8-16" value="" style="endArrow=classic;html=1;exitX=0.5;exitY=1;exitDx=0;exitDy=0;entryX=0.5;entryY=0;entryDx=0;entryDy=0;" edge="1" parent="1" source="qv1XhSE9-4ylHCxE3Da8-11" target="zfAiL8usJquPXQVk5bwJ-16">
          <mxGeometry width="50" height="50" relative="1" as="geometry">
            <mxPoint x="210" y="340" as="sourcePoint" />
            <mxPoint x="260" y="290" as="targetPoint" />
          </mxGeometry>
        </mxCell>
        <mxCell id="qv1XhSE9-4ylHCxE3Da8-18" value="" style="endArrow=classic;startArrow=classic;html=1;" edge="1" parent="1">
          <mxGeometry width="50" height="50" relative="1" as="geometry">
            <mxPoint x="320" y="586" as="sourcePoint" />
            <mxPoint x="320" y="560" as="targetPoint" />
          </mxGeometry>
        </mxCell>
      </root>
    </mxGraphModel>
  </diagram>
</mxfile>
